<svg id="Capa_1" enable-background="new 0 0 512.011 512.011" height="512" viewBox="0 0 512.011 512.011" width="512" xmlns="http://www.w3.org/2000/svg"><g><path d="m155.865 448.502c-7.022 0-14.155-.944-21.241-2.923-20.34-5.68-37.251-18.942-47.617-37.341-5.802-10.299-9.161-21.518-10.001-32.967l-19.238 68.884c-5.643 20.204 6.204 41.232 26.409 46.875l70.045 19.562c3.399.949 6.855 1.419 10.291 1.419 6.456 0 12.837-1.66 18.616-4.916 8.854-4.988 15.235-13.125 17.968-22.912l19.274-69.014c-14.74 20.735-38.864 33.333-64.506 33.333z"/><path d="m256.005 157.068 80.911-22.597-8.948-32.042c-1.07-3.832-3.619-7.082-7.084-9.034-3.466-1.953-7.566-2.448-11.397-1.378l-53.48 14.936-53.48-14.936c-3.832-1.07-7.932-.574-11.397 1.378s-6.014 5.203-7.084 9.034l-8.948 32.042z"/><path d="m213.302 346.257c3.525-12.623 1.924-25.862-4.508-37.28-6.433-11.417-16.927-19.647-29.549-23.172-4.384-1.224-8.842-1.831-13.272-1.831-8.327 0-16.555 2.141-24.007 6.339-11.418 6.433-19.647 16.927-23.172 29.549l-10.157 36.371c-3.525 12.622-1.924 25.862 4.508 37.28 6.433 11.417 16.927 19.647 29.549 23.172 4.396 1.228 8.826 1.813 13.182 1.814 21.464.001 41.221-14.21 47.271-35.871z"/><path d="m278.594 295.449c10.155-18.025 26.722-31.017 46.649-36.583 33.96-9.484 69.047 5.316 86.724 33.911l-14.354-51.399c-6.243-22.355-22.796-40.05-44.221-47.913l-8.406-30.101-85.207 23.796c-.304.085-.608.156-.913.222l8.415 30.131c-4.864 6.084-8.647 12.855-11.275 20.023-2.628-7.168-6.411-13.939-11.275-20.023l8.391-30.045c-1.158-.207-2.286-.532-3.354-.997l-82.742-23.108-8.406 30.101c-21.425 7.863-37.978 25.558-44.221 47.913l-12.794 45.811c6.651-9.357 15.337-17.212 25.636-23.014 18.399-10.366 39.735-12.946 60.074-7.266 20.34 5.68 37.251 18.942 47.617 37.341 5.802 10.299 9.161 21.518 10.001 32.967l11.073-39.648 12.602 45.122c.11-12.918 3.468-25.672 9.986-37.241z"/><path d="m454.243 444.155-20.246-72.493c-.111 12.921-3.468 25.676-9.986 37.246-10.155 18.025-26.722 31.017-46.649 36.583-6.92 1.933-13.958 2.889-20.953 2.889-13.145 0-26.135-3.379-37.901-10.007-11.569-6.518-21.05-15.687-27.839-26.681l20.245 72.491c2.733 9.788 9.114 17.925 17.968 22.913 5.779 3.256 12.16 4.916 18.616 4.916 3.436 0 6.892-.47 10.291-1.419l70.045-19.562c20.205-5.643 32.052-26.672 26.409-46.876z"/><path d="m300.37 346.233 10.451 37.421c3.41 12.208 11.37 22.359 22.414 28.581 11.045 6.222 23.851 7.772 36.059 4.361 12.208-3.41 22.359-11.37 28.581-22.414s7.771-23.85 4.361-36.059l-10.451-37.421c-3.41-12.208-11.37-22.359-22.414-28.581-7.208-4.061-15.168-6.131-23.221-6.131-4.286 0-8.597.586-12.837 1.771-12.209 3.41-22.359 11.37-28.582 22.414-6.222 11.043-7.771 23.849-4.361 36.058z"/><path d="m256.006 54.29c8.284 0 15-6.716 15-15v-24.29c0-8.284-6.716-15-15-15s-15 6.716-15 15v24.29c0 8.284 6.715 15 15 15z"/><path d="m197.559 44.716c2.628 5.256 7.925 8.295 13.428 8.295 2.254 0 4.543-.51 6.697-1.587 7.41-3.705 10.413-12.715 6.708-20.125l-10.863-21.725c-3.705-7.409-12.714-10.413-20.125-6.708-7.41 3.705-10.413 12.715-6.708 20.125z"/><path d="m294.327 51.424c2.154 1.077 4.442 1.587 6.697 1.587 5.502 0 10.8-3.039 13.428-8.295l10.863-21.725c3.705-7.41.702-16.42-6.708-20.125-7.411-3.704-16.419-.701-20.125 6.708l-10.863 21.725c-3.704 7.409-.701 16.42 6.708 20.125z"/></g></svg>